<svg viewBox="0 0 800 500" xmlns="http://www.w3.org/2000/svg">
  <!-- Background -->
  <rect width="800" height="500" fill="#f8f9fa" rx="10" ry="10"/>
  
  <!-- Title -->
  <text x="400" y="40" font-family="Arial, sans-serif" font-size="24" text-anchor="middle" font-weight="bold">Container Lifecycle: With vs Without Supervisord</text>
  
  <!-- Left side - Without Supervisord -->
  <rect x="50" y="80" width="300" height="380" fill="#e9ecef" stroke="#ced4da" stroke-width="2" rx="10" ry="10"/>
  <text x="200" y="110" font-family="Arial, sans-serif" font-size="18" text-anchor="middle" font-weight="bold">Without Supervisord</text>
  
  <!-- Container representation - Left -->
  <rect x="80" y="130" width="240" height="270" fill="#ffffff" stroke="#6c757d" stroke-width="2" rx="5" ry="5"/>
  <text x="200" y="155" font-family="Arial, sans-serif" font-size="14" text-anchor="middle">Docker Container</text>
  
  <!-- Processes - Left Normal state -->
  <rect x="110" y="180" width="180" height="50" fill="#28a745" stroke="#212529" stroke-width="1" rx="5" ry="5" opacity="0.8"/>
  <text x="200" y="210" font-family="Arial, sans-serif" font-size="14" text-anchor="middle" fill="white">Main Process (PID 1)</text>
  
  <rect x="110" y="240" width="180" height="35" fill="#17a2b8" stroke="#212529" stroke-width="1" rx="5" ry="5" opacity="0.8"/>
  <text x="200" y="262" font-family="Arial, sans-serif" font-size="12" text-anchor="middle" fill="white">Apache Process</text>
  
  <rect x="110" y="285" width="180" height="35" fill="#17a2b8" stroke="#212529" stroke-width="1" rx="5" ry="5" opacity="0.8"/>
  <text x="200" y="307" font-family="Arial, sans-serif" font-size="12" text-anchor="middle" fill="white">MySQL Process</text>
  
  <!-- Failure scenario - Left -->
  <rect x="80" y="420" width="240" height="30" fill="#ffffff" stroke="#6c757d" stroke-width="2" rx="5" ry="5"/>
  <text x="200" y="440" font-family="Arial, sans-serif" font-size="12" text-anchor="middle" fill="#dc3545">If Any Process Fails → Container Dies</text>
  
  <!-- Right side - With Supervisord -->
  <rect x="450" y="80" width="300" height="380" fill="#e9ecef" stroke="#ced4da" stroke-width="2" rx="10" ry="10"/>
  <text x="600" y="110" font-family="Arial, sans-serif" font-size="18" text-anchor="middle" font-weight="bold">With Supervisord</text>
  
  <!-- Container representation - Right -->
  <rect x="480" y="130" width="240" height="270" fill="#ffffff" stroke="#6c757d" stroke-width="2" rx="5" ry="5"/>
  <text x="600" y="155" font-family="Arial, sans-serif" font-size="14" text-anchor="middle">Docker Container</text>
  
  <!-- Processes - Right Normal state -->
  <rect x="510" y="180" width="180" height="50" fill="#007bff" stroke="#212529" stroke-width="1" rx="5" ry="5" opacity="0.8"/>
  <text x="600" y="210" font-family="Arial, sans-serif" font-size="14" text-anchor="middle" fill="white">Supervisord (PID 1)</text>
  
  <rect x="510" y="240" width="180" height="35" fill="#17a2b8" stroke="#212529" stroke-width="1" rx="5" ry="5" opacity="0.8"/>
  <text x="600" y="262" font-family="Arial, sans-serif" font-size="12" text-anchor="middle" fill="white">Apache Process</text>
  
  <rect x="510" y="285" width="180" height="35" fill="#17a2b8" stroke="#212529" stroke-width="1" rx="5" ry="5" opacity="0.8"/>
  <text x="600" y="307" font-family="Arial, sans-serif" font-size="12" text-anchor="middle" fill="white">MySQL Process</text>
  
  <!-- Monitoring arrows -->
  <path d="M 600 230 L 600 240" stroke="#007bff" stroke-width="2" stroke-dasharray="5,3"/>
  <path d="M 600 230 L 580 240" stroke="#007bff" stroke-width="2" stroke-dasharray="5,3"/>
  <path d="M 600 230 L 620 240" stroke="#007bff" stroke-width="2" stroke-dasharray="5,3"/>
  
  <path d="M 600 275 L 600 285" stroke="#007bff" stroke-width="2" stroke-dasharray="5,3"/>
  <path d="M 600 275 L 580 285" stroke="#007bff" stroke-width="2" stroke-dasharray="5,3"/>
  <path d="M 600 275 L 620 285" stroke="#007bff" stroke-width="2" stroke-dasharray="5,3"/>
  
  <!-- Restart arrow -->
  <path d="M 640 262 C 670 262, 670 307, 640 307" stroke="#28a745" stroke-width="2" fill="none" marker-end="url(#arrowhead)"/>
  
  <!-- Arrow marker definition -->
  <defs>
    <marker id="arrowhead" markerWidth="10" markerHeight="7" refX="0" refY="3.5" orient="auto">
      <polygon points="0 0, 10 3.5, 0 7" fill="#28a745" />
    </marker>
  </defs>
  
  <!-- Failure scenario - Right -->
  <rect x="480" y="420" width="240" height="30" fill="#ffffff" stroke="#6c757d" stroke-width="2" rx="5" ry="5"/>
  <text x="600" y="440" font-family="Arial, sans-serif" font-size="12" text-anchor="middle" fill="#28a745">If Process Fails → Supervisord Restarts It</text>

  <!-- Connection between diagrams -->
  <line x1="400" y1="150" x2="400" y2="350" stroke="#6c757d" stroke-width="2" stroke-dasharray="10,5"/>
</svg>